<svg xmlns="http://www.w3.org/2000/svg" width="128" height="128" viewBox="0 0 1024 1024">
  <rect width="1024" height="1024" fill="#fff" />
  <rect x="128" y="128" width="768" height="200" fill="#c1eaf2" />
  <rect x="160" y="144" width="768" height="200" fill="#c1eaf2" opacity="0.5" />
  <rect x="128" y="360" width="768" height="140" fill="#5cc2f2" />
  <rect x="160" y="376" width="768" height="140" fill="#5cc2f2" opacity="0.5" />
  <rect x="128" y="532" width="768" height="140" fill="#191ba9" />
  <rect x="160" y="548" width="768" height="140" fill="#191ba9" opacity="0.5" />
  <g transform="translate(-80,170) scale(6)">
    <path
      d="m 56.857399,99.378831 q 2.5146,0 4.0386,1.752599 1.5494,1.7526 1.5494,5.2832 0,3.4798 -1.5494,5.2832 -1.524,1.8034 -4.064,1.8034 -1.5748,0 -2.6162,-0.5842 -1.016,-0.6096 -1.6002,-1.397 h -0.1524 q 0.0508,0.4318 0.1016,1.0922 0.0508,0.6604 0.0508,1.143 v 5.588 h -2.2352 V 99.632831 h 1.8288 l 0.3048,1.854199 h 0.1016 q 0.6096,-0.889 1.6002,-1.498599 0.9906,-0.6096 2.6416,-0.6096 z m -0.4064,1.879599 q -2.0828,0 -2.9464,1.1684 -0.8382,1.1684 -0.889,3.556 v 0.4318 q 0,2.5146 0.8128,3.8862 0.8382,1.3462 3.0734,1.3462 1.2446,0 2.032,-0.6858 0.8128,-0.6858 1.1938,-1.8542 0.4064,-1.1938 0.4064,-2.7178 0,-2.3368 -0.9144,-3.7338 -0.889,-1.397 -2.7686,-1.397 z M 68.236592,99.632831 V 113.24723 H 66.001393 V 99.632831 Z m -1.0922,-5.1054 q 0.508,0 0.889,0.3556 0.4064,0.3302 0.4064,1.0668 0,0.7112 -0.4064,1.0668 -0.381,0.3556 -0.889,0.3556 -0.5588,0 -0.9398,-0.3556 -0.380999,-0.3556 -0.380999,-1.0668 0,-0.7366 0.380999,-1.0668 0.381,-0.3556 0.9398,-0.3556 z m 10.871186,18.973799 q -1.8034,0 -3.2258,-0.7366 -1.397,-0.7366 -2.2098,-2.286 -0.7874,-1.5494 -0.7874,-3.9624 0,-2.5146 0.8382,-4.0894 0.8382,-1.5748 2.2606,-2.3114 1.4478,-0.736599 3.2766,-0.736599 1.0414,0 2.0066,0.2286 0.9652,0.2032 1.5748,0.507999 l -0.6858,1.8542 q -0.6096,-0.2286 -1.4224,-0.4318 -0.8128,-0.2032 -1.524,-0.2032 -4.0132,0 -4.0132,5.1562 0,2.4638 0.9652,3.7846 0.9906,1.2954 2.921,1.2954 1.1176,0 1.9558,-0.2286 0.8636,-0.2286 1.5748,-0.5588 v 1.9812 q -0.6858,0.3556 -1.524,0.5334 -0.8128,0.2032 -1.9812,0.2032 z m 17.322786,-5.1054 q 0,2.413 -1.7526,3.7592 -1.7526,1.3462 -4.7244,1.3462 -1.524,0 -2.8194,-0.2286 -1.2954,-0.2286 -2.159,-0.635 v -2.1844 q 0.9144,0.4064 2.2606,0.7366 1.3716,0.3302 2.8194,0.3302 2.032,0 3.048,-0.7874 1.0414,-0.7874 1.0414,-2.1336 0,-0.889 -0.381,-1.4986 -0.381,-0.6096 -1.3208,-1.1176 -0.9144,-0.5334 -2.5654,-1.1176 -1.1684,-0.4318 -2.0574,-0.9144 -0.8636,-0.508 -1.4478,-1.143 -0.5842,-0.635 -0.889,-1.4478 -0.2794,-0.8128 -0.2794,-1.879599 0,-1.4478 0.7366,-2.4638 0.7366,-1.0414 2.032,-1.6002 1.3208,-0.5588 3.0226,-0.5588 1.4986,0 2.7432,0.2794 1.2446,0.2794 2.2606,0.7366 l -0.7112,1.9558 q -0.9398,-0.4064 -2.0574,-0.6858 -1.0922,-0.2794 -2.286,-0.2794 -1.7018,0 -2.5654,0.7366 -0.8636,0.7112 -0.8636,1.905 0,0.914399 0.381,1.523999 0.381,0.6096 1.2446,1.0922 0.8636,0.4826 2.3368,1.0414 1.6002,0.5842 2.6924,1.27 1.1176,0.6604 1.6764,1.6002 0.5842,0.9398 0.5842,2.3622 z m 7.899396,3.2766 q 0.508,0 1.0414,-0.0762 0.5334,-0.1016 0.8636,-0.2032 v 1.7018 q -0.3556,0.1778 -1.016,0.2794 -0.6604,0.127 -1.27,0.127 -1.0668,0 -1.9812,-0.3556 -0.889001,-0.381 -1.447801,-1.2954 -0.5588,-0.9144 -0.5588,-2.5654 v -7.9248 h -1.9304 v -1.0668 l 1.9558,-0.888999 0.889,-2.8956 h 1.320801 v 3.1242 h 3.937 v 1.727199 h -3.937 v 7.874 q 0,1.2446 0.5842,1.8542 0.6096,0.5842 1.5494,0.5842 z m 6.858,-12.039599 v 13.614399 h -2.2352 V 99.632831 Z m -1.0922,-5.1054 q 0.508,0 0.889,0.3556 0.4064,0.3302 0.4064,1.0668 0,0.7112 -0.4064,1.0668 -0.381,0.3556 -0.889,0.3556 -0.5588,0 -0.9398,-0.3556 -0.381,-0.3556 -0.381,-1.0668 0,-0.7366 0.381,-1.0668 0.381,-0.3556 0.9398,-0.3556 z m 9.95679,17.144999 q 0.508,0 1.0414,-0.0762 0.5334,-0.1016 0.8636,-0.2032 v 1.7018 q -0.3556,0.1778 -1.016,0.2794 -0.6604,0.127 -1.27,0.127 -1.0668,0 -1.9812,-0.3556 -0.889,-0.381 -1.4478,-1.2954 -0.5588,-0.9144 -0.5588,-2.5654 v -7.9248 h -1.9304 v -1.0668 l 1.9558,-0.888999 0.889,-2.8956 h 1.3208 v 3.1242 h 3.937 v 1.727199 h -3.937 v 7.874 q 0,1.2446 0.5842,1.8542 0.6096,0.5842 1.5494,0.5842 z m 10.0838,1.8288 q -1.8034,0 -3.2258,-0.7366 -1.397,-0.7366 -2.2098,-2.286 -0.7874,-1.5494 -0.7874,-3.9624 0,-2.5146 0.8382,-4.0894 0.8382,-1.5748 2.2606,-2.3114 1.4478,-0.736599 3.2766,-0.736599 1.0414,0 2.0066,0.2286 0.9652,0.2032 1.5748,0.507999 l -0.6858,1.8542 q -0.6096,-0.2286 -1.4224,-0.4318 -0.8128,-0.2032 -1.524,-0.2032 -4.0132,0 -4.0132,5.1562 0,2.4638 0.9652,3.7846 0.9906,1.2954 2.921,1.2954 1.1176,0 1.9558,-0.2286 0.8636,-0.2286 1.5748,-0.5588 v 1.9812 q -0.6858,0.3556 -1.524,0.5334 -0.8128,0.2032 -1.9812,0.2032 z m 8.96619,-13.893799 q 0,0.482599 -0.0508,0.990599 -0.0254,0.508 -0.0762,0.9144 h 0.1524 q 0.6604,-1.0414 1.778,-1.574799 1.143,-0.5334 2.4638,-0.5334 2.4892,0 3.7338,1.193799 1.2446,1.1684 1.2446,3.7846 v 8.8646 h -2.2098 v -8.7122 q 0,-3.2766 -3.048,-3.2766 -2.286,0 -3.1496,1.2954 -0.8382,1.27 -0.8382,3.6576 v 7.0358 h -2.2352 V 93.943231 h 2.2352 z"
      id="text1" aria-label="picStitch" />
  </g>
</svg>